<svg width="63" height="42" viewBox="0 0 63 42" fill="none" xmlns="http://www.w3.org/2000/svg">
<path d="M10.6334 3.52297C11.7666 2.35812 12.3834 1.65047 12.3834 1.12766C12.3834 0.825781 12.1734 0.525 11.9645 0.316094C11.6975 0.121362 11.3773 0.0129716 11.0469 0.00546908C10.1194 0.00546908 8.75876 0.966875 7.12688 2.81531C2.59001 7.98437 0.274538 12.9948 0.3686 20.3809C0.462663 27.767 2.27938 33.1778 6.28141 38.0855C8.33657 40.6722 9.91157 42 11.0359 42C11.3808 41.9712 11.7046 41.8226 11.9514 41.58C12.1603 41.2781 12.3681 40.9642 12.3681 40.6634C12.3681 40.0477 11.9459 39.3291 10.9244 38.4158C6.06266 33.7859 3.56126 27.8064 3.54376 20.3689C3.52735 13.65 5.90626 8.07516 10.6334 3.52297ZM26.192 38.9452C26.2555 38.9856 26.2916 39.0053 26.2916 39.0053L26.192 38.9452ZM36.4503 39.0053L36.4689 38.9911C36.4481 39.0053 36.4405 39.0108 36.4503 39.0053ZM36.7927 21.7044C35.0164 21.2505 42.3063 12.6383 29.3497 2.32641C29.3497 2.32641 31.0494 7.72734 22.4777 19.7794C14.3544 31.1927 25.0436 38.2342 26.1964 38.9452C25.4603 38.4694 21.012 35.0405 27.2409 24.8752C28.4441 22.8736 30.0333 21.0613 31.9988 16.9827C31.9988 16.9827 33.7389 19.4381 32.83 24.7625C31.4672 32.8125 38.7188 30.5058 38.8281 30.6184C41.3164 33.5475 36.89 38.6586 36.4678 38.9911C37.0683 38.5919 49.3424 30.4598 40.0772 18.4177C39.422 19.075 38.5678 22.1583 36.7927 21.7044ZM55.8775 2.80984C54.25 0.961407 52.885 0 51.9531 0C51.6227 0.00750254 51.3025 0.115893 51.0355 0.310625C50.8266 0.519531 50.6166 0.820313 50.6166 1.12219C50.6166 1.645 51.2291 2.35375 52.3666 3.5175C57.0948 8.06859 59.4759 13.6445 59.4563 20.3678C59.4388 27.8053 56.9406 33.7805 52.0756 38.4147C51.0541 39.328 50.6341 40.0466 50.6319 40.6623C50.6319 40.9631 50.8397 41.277 51.0486 41.5789C51.2955 41.8214 51.6192 41.9703 51.9641 42C53.0884 42 54.6634 40.6733 56.7186 38.0855C60.7206 33.18 62.5308 27.7627 62.6314 20.3809C62.732 12.9992 60.41 7.98438 55.8775 2.80984Z" fill="white"/>
</svg>
